<mxfile host="app.diagrams.net" agent="Mozilla/5.0 (Windows NT 10.0; Win64; x64) AppleWebKit/537.36 (KHTML, like Gecko) Chrome/132.0.0.0 Safari/537.36" version="26.0.6">
  <diagram name="Page-1" id="Zxi5evTJcRGwks3AO4VT">
    <mxGraphModel dx="1195" dy="650" grid="1" gridSize="10" guides="1" tooltips="1" connect="1" arrows="1" fold="1" page="1" pageScale="1" pageWidth="827" pageHeight="1169" math="0" shadow="0">
      <root>
        <mxCell id="0" />
        <mxCell id="1" parent="0" />
        <mxCell id="1TXlmp9ZfzOlPmJ7U72J-1" value="" style="whiteSpace=wrap;html=1;aspect=fixed;" vertex="1" parent="1">
          <mxGeometry x="160" y="160" width="480" height="480" as="geometry" />
        </mxCell>
        <mxCell id="1TXlmp9ZfzOlPmJ7U72J-4" value="UC : IHM" style="shape=partialRectangle;whiteSpace=wrap;html=1;top=0;left=0;fillColor=none;" vertex="1" parent="1">
          <mxGeometry x="160" y="160" width="100" height="30" as="geometry" />
        </mxCell>
        <mxCell id="1TXlmp9ZfzOlPmJ7U72J-5" value="Opérateur" style="shape=umlActor;html=1;verticalLabelPosition=bottom;verticalAlign=top;align=center;" vertex="1" parent="1">
          <mxGeometry x="60" y="360" width="30" height="60" as="geometry" />
        </mxCell>
        <mxCell id="1TXlmp9ZfzOlPmJ7U72J-6" value="Serveur traitement" style="shape=umlActor;html=1;verticalLabelPosition=bottom;verticalAlign=top;align=center;" vertex="1" parent="1">
          <mxGeometry x="700" y="360" width="30" height="60" as="geometry" />
        </mxCell>
        <mxCell id="1TXlmp9ZfzOlPmJ7U72J-7" value="Consulter les données" style="shape=ellipse;html=1;strokeWidth=3;fontStyle=1;whiteSpace=wrap;align=center;perimeter=ellipsePerimeter;" vertex="1" parent="1">
          <mxGeometry x="200" y="360" width="120" height="60" as="geometry" />
        </mxCell>
        <mxCell id="1TXlmp9ZfzOlPmJ7U72J-8" value="" style="edgeStyle=none;html=1;endArrow=none;verticalAlign=bottom;rounded=0;exitX=0.5;exitY=0.5;exitDx=0;exitDy=0;exitPerimeter=0;entryX=0;entryY=0.5;entryDx=0;entryDy=0;" edge="1" parent="1" source="1TXlmp9ZfzOlPmJ7U72J-5" target="1TXlmp9ZfzOlPmJ7U72J-7">
          <mxGeometry width="160" relative="1" as="geometry">
            <mxPoint x="360" y="380" as="sourcePoint" />
            <mxPoint x="520" y="380" as="targetPoint" />
          </mxGeometry>
        </mxCell>
        <mxCell id="1TXlmp9ZfzOlPmJ7U72J-9" value="Envoyer les données" style="shape=ellipse;html=1;strokeWidth=3;fontStyle=1;whiteSpace=wrap;align=center;perimeter=ellipsePerimeter;" vertex="1" parent="1">
          <mxGeometry x="490" y="360" width="120" height="60" as="geometry" />
        </mxCell>
        <mxCell id="1TXlmp9ZfzOlPmJ7U72J-10" value="" style="edgeStyle=none;html=1;endArrow=none;verticalAlign=bottom;rounded=0;entryX=0.5;entryY=0.5;entryDx=0;entryDy=0;entryPerimeter=0;exitX=1;exitY=0.5;exitDx=0;exitDy=0;" edge="1" parent="1" source="1TXlmp9ZfzOlPmJ7U72J-9" target="1TXlmp9ZfzOlPmJ7U72J-6">
          <mxGeometry width="160" relative="1" as="geometry">
            <mxPoint x="360" y="380" as="sourcePoint" />
            <mxPoint x="520" y="380" as="targetPoint" />
          </mxGeometry>
        </mxCell>
      </root>
    </mxGraphModel>
  </diagram>
</mxfile>
